<?xml version="1.0" standalone="no"?>
<!DOCTYPE svg PUBLIC "-//W3C//DTD SVG 20010904//EN"
 "http://www.w3.org/TR/2001/REC-SVG-20010904/DTD/svg10.dtd">
<svg version="1.0" xmlns="http://www.w3.org/2000/svg"
 width="16.000000pt" height="16.000000pt" viewBox="0 0 16.000000 16.000000"
 preserveAspectRatio="xMidYMid meet">
<metadata>
Created by potrace 1.11, written by Peter Selinger 2001-2013
</metadata>
<g transform="translate(0.000000,16.000000) scale(0.006324,-0.006324)"
fill="#000000" stroke="none">
<path d="M2518 1528 c-1 -552 -2 -1056 -2 -1121 0 -115 -1 -117 -23 -117 -12
0 -32 4 -45 9 -13 5 -75 28 -138 51 -63 23 -181 71 -261 106 -80 35 -176 72
-214 81 -78 21 -147 74 -191 148 -39 68 -53 74 -47 23 5 -46 -37 -172 -130
-388 -38 -87 -107 -291 -107 -314 0 -3 263 -6 585 -6 l585 0 0 1265 c0 696 -2
1265 -5 1265 -3 0 -6 -451 -7 -1002z"/>
<path d="M1200 2205 c-72 -15 -140 -50 -237 -124 -148 -111 -184 -167 -203
-315 -12 -84 -10 -125 6 -203 5 -26 3 -33 -9 -33 -42 0 -43 -71 -4 -245 13
-59 23 -75 47 -75 15 0 20 -14 30 -72 19 -117 29 -149 71 -219 32 -54 39 -74
39 -118 0 -28 -6 -64 -14 -79 -46 -90 -10 -259 80 -377 52 -69 113 -91 115
-41 0 11 3 15 6 8 8 -19 61 24 193 157 189 190 212 225 225 342 4 41 15 77 30
100 34 53 50 95 66 173 12 61 16 70 41 78 28 10 37 31 18 43 -14 9 -1 28 15
21 7 -2 19 10 29 32 50 116 42 222 -16 222 -17 0 -19 4 -14 28 52 210 47 333
-16 426 -34 51 -190 199 -238 227 -84 49 -169 63 -260 44z m158 -141 c14 -3
22 -12 22 -24 0 -11 8 -24 19 -29 10 -6 22 -22 25 -36 4 -14 10 -24 14 -21 11
6 58 -118 55 -144 0 -3 -4 -26 -7 -53 -7 -45 -6 -48 20 -57 15 -6 23 -14 18
-19 -13 -11 -222 -53 -261 -53 -50 1 -73 6 -73 13 0 9 -22 17 -88 35 -62 16
-99 44 -60 44 21 0 24 4 22 37 0 27 6 43 23 59 13 12 23 33 23 48 0 15 4 25 8
22 5 -3 7 8 4 23 -3 24 2 32 32 50 20 12 40 20 44 17 5 -3 7 12 5 34 -3 33 -1
39 12 34 9 -4 15 -1 15 9 0 8 6 18 13 20 12 5 69 0 115 -9z m-374 -570 c9 -24
8 -26 -14 -14 -11 6 -18 15 -15 21 9 14 22 11 29 -7z m104 -16 c-2 -6 -10 -14
-16 -16 -7 -2 -10 2 -6 12 7 18 28 22 22 4z m216 -107 c4 -24 13 -53 21 -64
19 -27 19 -42 -1 -61 -23 -24 -122 -21 -151 3 -29 24 -29 26 6 60 16 15 32 39
36 52 13 45 39 99 47 99 4 0 8 8 8 18 1 25 27 -55 34 -107z m156 93 c0 -16
-16 -19 -25 -4 -8 13 4 32 16 25 5 -4 9 -13 9 -21z m-419 -116 c9 -12 21 -18
26 -15 5 4 8 -7 5 -24 -3 -17 -11 -33 -18 -36 -8 -3 -14 -10 -14 -17 0 -9 -42
-13 -86 -7 -6 0 -19 20 -29 44 -10 23 -25 50 -33 59 -13 16 -12 20 8 36 23 18
25 18 74 0 28 -11 58 -29 67 -40z m567 21 c1 -8 -5 -23 -13 -34 -9 -11 -28
-42 -43 -69 -34 -62 -53 -74 -85 -57 -20 11 -25 21 -25 57 -1 31 3 47 14 51
10 4 12 9 4 18 -13 16 -3 25 29 26 14 0 42 7 61 14 40 15 54 14 58 -6z m112
-83 c0 -17 -14 -29 -23 -20 -8 8 3 34 14 34 5 0 9 -6 9 -14z m-590 -56 c0 -5
-5 -10 -11 -10 -5 0 -7 5 -4 10 3 6 8 10 11 10 2 0 4 -4 4 -10z m168 -184 c3
-3 -18 -6 -46 -6 -29 0 -52 4 -52 8 0 9 88 7 98 -2z m-23 -86 l100 0 -34 -22
c-46 -30 -150 -37 -186 -14 -32 21 -34 51 -2 42 12 -3 67 -6 122 -6z"/>
<path d="M863 678 c-11 -13 -33 -44 -49 -71 -30 -48 -59 -64 -199 -108 -22 -7
-102 -43 -177 -81 -94 -47 -144 -67 -158 -63 -15 5 -18 3 -14 -9 4 -11 -14
-24 -68 -50 -100 -48 -135 -104 -151 -244 l-6 -52 389 0 389 0 4 133 c8 235
34 482 58 545 5 12 7 22 5 22 -1 0 -12 -10 -23 -22z"/>
<path d="M270 622 c0 -26 2 -28 35 -24 50 6 85 -5 85 -27 0 -13 7 -18 23 -17
18 1 22 7 20 34 -1 36 -13 55 -20 35 -7 -19 -31 -16 -60 7 -14 11 -39 20 -54
20 -25 0 -29 -4 -29 -28z"/>
<path d="M538 573 c7 -3 16 -2 19 1 4 3 -2 6 -13 5 -11 0 -14 -3 -6 -6z"/>
<path d="M272 528 c2 -13 9 -22 16 -20 10 2 12 -15 9 -68 -2 -38 0 -70 3 -70
4 0 15 28 25 63 9 34 20 70 22 80 4 12 0 17 -13 17 -16 0 -17 2 -4 10 11 7 5
10 -23 10 -34 0 -38 -2 -35 -22z"/>
<path d="M266 483 c-11 -11 -6 -23 9 -23 8 0 15 4 15 9 0 13 -16 22 -24 14z"/>
<path d="M267 413 c-11 -10 -8 -43 3 -43 6 0 10 11 10 25 0 26 -2 29 -13 18z"/>
<path d="M991 213 c-28 -23 -44 -93 -35 -160 l6 -53 53 0 53 0 32 83 c18 45
41 91 51 101 16 17 20 18 35 5 16 -13 16 -12 5 9 -12 23 -39 23 -84 0 -24 -12
-77 0 -77 18 0 19 -13 18 -39 -3z"/>
<path d="M1194 162 c-7 -4 -24 -36 -39 -72 -15 -36 -29 -71 -32 -77 -3 -9 5
-13 25 -13 26 0 31 4 36 36 4 19 16 44 27 55 17 17 18 23 7 49 -8 18 -17 27
-24 22z"/>
</g>
</svg>
